<svg width="99" height="42" viewBox="0 0 99 42" fill="none" xmlns="http://www.w3.org/2000/svg">
<path d="M23.7407 21.7143C25.6667 21.7143 26.8519 19 26.8519 17.2857C26.8519 15.8571 26.1111 14.1429 24.6296 14.1429C22.7037 14.1429 21.5185 16.8571 21.5185 18.5714C21.5185 20 22.2593 21.7143 23.7407 21.7143ZM18.1111 21.7143C19.5926 21.7143 20.3333 20 20.3333 18.5714C20.3333 16.7143 19.1481 14 17.2222 14C15.7407 14 15 15.7143 15 17.1429C14.8519 19 16.037 21.7143 18.1111 21.7143ZM29.0741 20.2857C27.1481 20.2857 25.8148 22.8571 25.8148 24.7143C25.8148 26 26.4074 27.2857 27.7407 27.2857C29.6667 27.2857 31 24.7143 31 22.8571C31 21.5714 30.2593 20.2857 29.0741 20.2857ZM16.1852 24.7143C16.1852 22.8571 14.7037 20.2857 12.9259 20.2857C11.5926 20.2857 11 21.5714 11 22.8571C11 24.7143 12.4815 27.2857 14.2593 27.2857C15.5926 27.2857 16.1852 26 16.1852 24.7143ZM20.9259 24.4286C17.963 24.4286 13.963 29 13.963 32.1429C13.963 33.5714 15 34 16.1852 34C17.963 34 19.2963 32.8571 20.9259 32.8571C22.4074 32.8571 23.7407 34 25.3704 34C26.5556 34 27.8889 33.7143 27.8889 32.1429C27.8889 29 23.8889 24.4286 20.9259 24.4286Z" fill="#FF938C"/>
<path d="M6 23V36.5C6 38.7091 7.79086 40.5 10 40.5H32C34.2091 40.5 36 38.7091 36 36.5V23" stroke="#474747" stroke-width="3" stroke-linecap="round"/>
<path fill-rule="evenodd" clip-rule="evenodd" d="M20.5476 1.54758C21.0143 1.15081 21.6999 1.15081 22.1667 1.54758V1.54758L41.2143 17.738C41.7403 18.1851 41.8042 18.974 41.3571 19.5V19.5C40.91 20.026 40.1211 20.09 39.5951 19.6429L23.6239 6.0673C22.3169 4.95635 20.3974 4.95635 19.0904 6.0673L3.11911 19.6429C2.5931 20.09 1.80423 20.026 1.35712 19.5V19.5C0.910014 18.974 0.973977 18.1851 1.49999 17.738L20.5476 1.54758V1.54758Z" fill="#474747"/>
<path d="M3.11911 19.6429L2.79528 19.2619L3.11911 19.6429ZM19.0904 6.0673L18.7665 5.68633L19.0904 6.0673ZM39.5951 19.6429L39.919 19.2619L39.5951 19.6429ZM41.2143 17.738L41.5381 17.357L41.2143 17.738ZM41.5381 17.357L22.4905 1.16661L21.8429 1.92855L40.8904 18.119L41.5381 17.357ZM23.3001 6.44827L39.2713 20.0238L39.919 19.2619L23.9477 5.68634L23.3001 6.44827ZM3.44293 20.0238L19.4142 6.44827L18.7665 5.68633L2.79528 19.2619L3.44293 20.0238ZM20.2237 1.16661L1.17616 17.357L1.82381 18.119L20.8714 1.92855L20.2237 1.16661ZM1.73809 19.1762C1.46983 18.8606 1.5082 18.3872 1.82381 18.119L1.17616 17.357C0.43975 17.983 0.350201 19.0874 0.976152 19.8238L1.73809 19.1762ZM2.79528 19.2619C2.47968 19.5302 2.00636 19.4918 1.73809 19.1762L0.976152 19.8238C1.6021 20.5602 2.70652 20.6498 3.44293 20.0238L2.79528 19.2619ZM23.9477 5.68634C22.454 4.41668 20.2602 4.41668 18.7665 5.68633L19.4142 6.44827C20.5345 5.49603 22.1798 5.49603 23.3001 6.44827L23.9477 5.68634ZM40.9762 19.1762C40.7079 19.4918 40.2346 19.5302 39.919 19.2619L39.2713 20.0238C40.0077 20.6498 41.1121 20.5602 41.7381 19.8238L40.9762 19.1762ZM40.8904 18.119C41.206 18.3872 41.2444 18.8606 40.9762 19.1762L41.7381 19.8238C42.364 19.0874 42.2745 17.983 41.5381 17.357L40.8904 18.119ZM22.4905 1.16661C21.837 0.611131 20.8772 0.611131 20.2237 1.16661L20.8714 1.92855C21.1515 1.69048 21.5628 1.69048 21.8429 1.92855L22.4905 1.16661Z" fill="#474747"/>
<path d="M55.134 14.81C55.3767 15.3047 55.498 15.8553 55.498 16.462C55.498 17.0687 55.3767 17.6193 55.134 18.114C54.8913 18.5993 54.5787 18.9867 54.196 19.276C53.4213 19.8733 52.6187 20.172 51.788 20.172H50.038V21.754C50.038 21.9687 50.0287 22.132 50.01 22.244C50.0007 22.3467 49.9587 22.468 49.884 22.608C49.7533 22.86 49.3893 22.986 48.792 22.986C48.1387 22.986 47.756 22.8133 47.644 22.468C47.588 22.3093 47.56 22.0667 47.56 21.74V13.97C47.56 13.7553 47.5647 13.5967 47.574 13.494C47.5927 13.382 47.6393 13.256 47.714 13.116C47.8447 12.864 48.2087 12.738 48.806 12.738H51.802C52.6233 12.738 53.4213 13.0367 54.196 13.634C54.5787 13.9233 54.8913 14.3153 55.134 14.81ZM51.802 17.694C52.082 17.694 52.3573 17.5913 52.628 17.386C52.8987 17.1807 53.034 16.8727 53.034 16.462C53.034 16.0513 52.8987 15.7433 52.628 15.538C52.3573 15.3233 52.0773 15.216 51.788 15.216H50.038V17.694H51.802ZM61.7537 16.406C61.8097 15.8833 62.1784 15.622 62.8597 15.622C63.2237 15.622 63.4944 15.65 63.6717 15.706C63.849 15.762 63.9704 15.86 64.0357 16C64.1104 16.14 64.1524 16.266 64.1617 16.378C64.1804 16.4807 64.1897 16.6393 64.1897 16.854V21.754C64.1897 21.9687 64.1804 22.132 64.1617 22.244C64.1524 22.3467 64.115 22.468 64.0497 22.608C63.919 22.8507 63.597 22.972 63.0837 22.972C62.5797 22.972 62.239 22.9113 62.0617 22.79C61.8937 22.6593 61.7957 22.4727 61.7677 22.23C61.4224 22.7247 60.8437 22.972 60.0317 22.972C59.229 22.972 58.4824 22.6033 57.7917 21.866C57.101 21.1287 56.7557 20.2747 56.7557 19.304C56.7557 18.324 57.101 17.47 57.7917 16.742C58.4917 16.0047 59.257 15.636 60.0877 15.636C60.405 15.636 60.6944 15.692 60.9557 15.804C61.217 15.916 61.399 16.0233 61.5017 16.126C61.6044 16.2193 61.6884 16.3127 61.7537 16.406ZM59.2057 19.318C59.2057 19.626 59.327 19.906 59.5697 20.158C59.8124 20.4007 60.1064 20.522 60.4517 20.522C60.797 20.522 61.0817 20.396 61.3057 20.144C61.539 19.892 61.6557 19.6167 61.6557 19.318C61.6557 19.01 61.5437 18.7253 61.3197 18.464C61.105 18.2027 60.811 18.072 60.4377 18.072C60.0737 18.072 59.775 18.2027 59.5417 18.464C59.3177 18.7253 59.2057 19.01 59.2057 19.318ZM75.3015 15.678C75.8989 15.9393 76.1975 16.2613 76.1975 16.644C76.1975 16.8027 76.1229 17.0593 75.9735 17.414C75.8242 17.7593 75.6982 18.0627 75.5955 18.324L74.0555 22.076C73.9155 22.4867 73.6822 22.776 73.3555 22.944C73.2155 23.0093 73.0382 23.042 72.8235 23.042C72.6089 23.042 72.3989 22.9627 72.1935 22.804C71.9975 22.636 71.8669 22.468 71.8015 22.3L71.6895 22.062C71.6149 21.8753 71.3395 21.1473 70.8635 19.878C70.7702 20.102 70.6302 20.4707 70.4435 20.984C70.2662 21.488 70.1495 21.8053 70.0935 21.936C70.0469 22.0573 70.0142 22.1413 69.9955 22.188C69.9862 22.2253 69.9489 22.3 69.8835 22.412C69.8182 22.524 69.7435 22.622 69.6595 22.706C69.4355 22.93 69.1789 23.042 68.8895 23.042C68.6002 23.042 68.3575 22.9627 68.1615 22.804C67.9655 22.636 67.8349 22.468 67.7695 22.3L65.6555 17.148C65.5622 16.868 65.5155 16.686 65.5155 16.602C65.5155 16.2287 65.7815 15.9347 66.3135 15.72C66.6122 15.5987 66.8549 15.538 67.0415 15.538C67.2282 15.538 67.3775 15.58 67.4895 15.664C67.6109 15.7387 67.6949 15.818 67.7415 15.902C67.7882 15.9767 67.8255 16.056 67.8535 16.14C68.0122 16.5133 68.3435 17.3907 68.8475 18.772L69.6735 16.504C69.7295 16.3173 69.8322 16.154 69.9815 16.014C70.2522 15.7433 70.5275 15.608 70.8075 15.608C71.0875 15.608 71.3255 15.6827 71.5215 15.832C71.7269 15.9813 71.8669 16.1307 71.9415 16.28L72.0535 16.518C72.5202 17.8247 72.7955 18.5713 72.8795 18.758L73.7335 16.434C73.9575 15.8367 74.2935 15.538 74.7415 15.538C74.9189 15.538 75.1055 15.5847 75.3015 15.678ZM86.4161 16.406C86.4721 15.8833 86.8408 15.622 87.5221 15.622C87.8861 15.622 88.1568 15.65 88.3341 15.706C88.5115 15.762 88.6328 15.86 88.6981 16C88.7728 16.14 88.8148 16.266 88.8241 16.378C88.8428 16.4807 88.8521 16.6393 88.8521 16.854V21.754C88.8521 21.9687 88.8428 22.132 88.8241 22.244C88.8148 22.3467 88.7775 22.468 88.7121 22.608C88.5815 22.8507 88.2595 22.972 87.7461 22.972C87.2421 22.972 86.9015 22.9113 86.7241 22.79C86.5561 22.6593 86.4581 22.4727 86.4301 22.23C86.0848 22.7247 85.5061 22.972 84.6941 22.972C83.8915 22.972 83.1448 22.6033 82.4541 21.866C81.7635 21.1287 81.4181 20.2747 81.4181 19.304C81.4181 18.324 81.7635 17.47 82.4541 16.742C83.1541 16.0047 83.9195 15.636 84.7501 15.636C85.0675 15.636 85.3568 15.692 85.6181 15.804C85.8795 15.916 86.0615 16.0233 86.1641 16.126C86.2668 16.2193 86.3508 16.3127 86.4161 16.406ZM83.8681 19.318C83.8681 19.626 83.9895 19.906 84.2321 20.158C84.4748 20.4007 84.7688 20.522 85.1141 20.522C85.4595 20.522 85.7441 20.396 85.9681 20.144C86.2015 19.892 86.3181 19.6167 86.3181 19.318C86.3181 19.01 86.2061 18.7253 85.9821 18.464C85.7675 18.2027 85.4735 18.072 85.1001 18.072C84.7361 18.072 84.4375 18.2027 84.2041 18.464C83.9801 18.7253 83.8681 19.01 83.8681 19.318ZM94.812 18.1L93.902 18.044V19.976C93.902 20.228 93.9393 20.41 94.014 20.522C94.098 20.634 94.2473 20.69 94.462 20.69C94.686 20.69 94.854 20.6993 94.966 20.718C95.0873 20.7273 95.2133 20.7693 95.344 20.844C95.5586 20.9653 95.666 21.278 95.666 21.782C95.666 22.37 95.5353 22.7293 95.274 22.86C95.134 22.9253 95.008 22.9673 94.896 22.986C94.7933 22.9953 94.6393 23 94.434 23C93.4633 23 92.726 22.7807 92.222 22.342C91.718 21.9033 91.466 21.1613 91.466 20.116V18.044C91.2886 18.072 91.0973 18.086 90.892 18.086C90.6866 18.086 90.514 18.0067 90.374 17.848C90.2433 17.6893 90.178 17.4187 90.178 17.036C90.178 16.6533 90.2013 16.378 90.248 16.21C90.2946 16.0327 90.36 15.9067 90.444 15.832C90.5933 15.7107 90.78 15.65 91.004 15.65L91.466 15.706V14.264C91.466 14.0493 91.4706 13.8907 91.48 13.788C91.4986 13.6853 91.5453 13.5733 91.62 13.452C91.7413 13.2187 92.1006 13.102 92.698 13.102C93.3326 13.102 93.7106 13.2747 93.832 13.62C93.8786 13.7693 93.902 14.0073 93.902 14.334V15.706C94.3126 15.6687 94.6206 15.65 94.826 15.65C95.0406 15.65 95.1993 15.6593 95.302 15.678C95.414 15.6873 95.54 15.7293 95.68 15.804C95.9226 15.9253 96.044 16.2847 96.044 16.882C96.044 17.47 95.918 17.8293 95.666 17.96C95.526 18.0253 95.4 18.0673 95.288 18.086C95.1853 18.0953 95.0266 18.1 94.812 18.1ZM54.888 27.704C54.9733 27.544 55.1173 27.432 55.32 27.368C55.5227 27.304 55.7787 27.272 56.088 27.272C56.3973 27.272 56.6427 27.2987 56.824 27.352C57.0053 27.4053 57.144 27.4693 57.24 27.544C57.336 27.6187 57.4107 27.7253 57.464 27.864C57.5173 28.0453 57.544 28.3227 57.544 28.696V37.576C57.544 37.8213 57.5333 38.008 57.512 38.136C57.5013 38.2533 57.4533 38.392 57.368 38.552C57.2187 38.84 56.8027 38.984 56.12 38.984C55.3733 38.984 54.936 38.7867 54.808 38.392C54.744 38.2107 54.712 37.9333 54.712 37.56V34.312H50.472V37.576C50.472 37.8213 50.4613 38.008 50.44 38.136C50.4293 38.2533 50.3813 38.392 50.296 38.552C50.1467 38.84 49.7307 38.984 49.048 38.984C48.3013 38.984 47.864 38.7867 47.736 38.392C47.672 38.2107 47.64 37.9333 47.64 37.56V28.68C47.64 28.4347 47.6453 28.2533 47.656 28.136C47.6773 28.008 47.7307 27.864 47.816 27.704C47.9653 27.416 48.3813 27.272 49.064 27.272C49.8107 27.272 50.2533 27.4693 50.392 27.864C50.4453 28.0453 50.472 28.3227 50.472 28.696V31.96H54.712V28.68C54.712 28.4347 54.7173 28.2533 54.728 28.136C54.7493 28.008 54.8027 27.864 54.888 27.704ZM64.9715 27.128C66.5502 27.128 67.9208 27.6987 69.0835 28.84C70.2462 29.9813 70.8275 31.4 70.8275 33.096C70.8275 34.7813 70.2728 36.2213 69.1635 37.416C68.0542 38.6 66.6888 39.192 65.0675 39.192C63.4462 39.192 62.0648 38.6053 60.9235 37.432C59.7928 36.2587 59.2275 34.8613 59.2275 33.24C59.2275 32.3547 59.3875 31.528 59.7075 30.76C60.0275 29.9813 60.4542 29.3307 60.9875 28.808C61.5208 28.2853 62.1342 27.8747 62.8275 27.576C63.5208 27.2773 64.2355 27.128 64.9715 27.128ZM62.0595 33.16C62.0595 34.1093 62.3635 34.8827 62.9715 35.48C63.5902 36.0667 64.2782 36.36 65.0355 36.36C65.7928 36.36 66.4755 36.072 67.0835 35.496C67.6915 34.92 67.9955 34.1467 67.9955 33.176C67.9955 32.2053 67.6862 31.4267 67.0675 30.84C66.4595 30.2533 65.7768 29.96 65.0195 29.96C64.2622 29.96 63.5795 30.2587 62.9715 30.856C62.3635 31.4427 62.0595 32.2107 62.0595 33.16ZM84.9778 27.72C85.0631 27.88 85.1111 28.024 85.1218 28.152C85.1431 28.28 85.1538 28.4667 85.1538 28.712V37.592C85.1538 38.328 84.9511 38.76 84.5458 38.888C84.3431 38.952 84.0871 38.984 83.7778 38.984C83.4684 38.984 83.2231 38.9573 83.0418 38.904C82.8604 38.8507 82.7218 38.7867 82.6258 38.712C82.5298 38.6373 82.4551 38.5307 82.4018 38.392C82.3484 38.2107 82.3218 37.9333 82.3218 37.56V32.2C82.0551 32.5307 81.6658 33.0587 81.1538 33.784C80.6418 34.4987 80.3164 34.9467 80.1778 35.128C80.0391 35.3093 79.9431 35.4373 79.8898 35.512C79.8364 35.576 79.7031 35.672 79.4898 35.8C79.2871 35.9173 79.0631 35.976 78.8178 35.976C78.5831 35.976 78.3644 35.9227 78.1618 35.816C77.9698 35.6987 77.8311 35.5867 77.7458 35.48L77.6178 35.304C77.4044 35.0373 76.9831 34.472 76.3538 33.608C75.7244 32.7333 75.3831 32.264 75.3298 32.2V37.592C75.3298 37.8373 75.3191 38.024 75.2978 38.152C75.2871 38.2693 75.2391 38.4027 75.1538 38.552C74.9938 38.84 74.5778 38.984 73.9058 38.984C73.2551 38.984 72.8498 38.84 72.6898 38.552C72.6044 38.4027 72.5511 38.264 72.5298 38.136C72.5191 38.008 72.5138 37.816 72.5138 37.56V28.68C72.5138 28.4347 72.5191 28.2533 72.5298 28.136C72.5511 28.008 72.6044 27.864 72.6898 27.704C72.8498 27.4267 73.2658 27.288 73.9378 27.288C74.2258 27.288 74.4711 27.3253 74.6738 27.4C74.8871 27.464 75.0258 27.5333 75.0898 27.608L75.1858 27.704L78.8178 32.472C80.6311 30.072 81.8418 28.488 82.4498 27.72C82.6311 27.432 83.0578 27.288 83.7298 27.288C84.4124 27.288 84.8284 27.432 84.9778 27.72ZM89.9076 36.168H94.8356C95.081 36.168 95.2623 36.1787 95.3796 36.2C95.5076 36.2107 95.6516 36.2587 95.8116 36.344C96.0996 36.4933 96.2436 36.9093 96.2436 37.592C96.2436 38.3387 96.0463 38.776 95.6516 38.904C95.4703 38.968 95.193 39 94.8196 39H88.4836C87.737 39 87.2996 38.7973 87.1716 38.392C87.1076 38.2213 87.0756 37.9493 87.0756 37.576V28.68C87.0756 28.136 87.177 27.768 87.3796 27.576C87.5823 27.3733 87.9663 27.272 88.5316 27.272H94.8356C95.081 27.272 95.2623 27.2827 95.3796 27.304C95.5076 27.3147 95.6516 27.3627 95.8116 27.448C96.0996 27.5973 96.2436 28.0133 96.2436 28.696C96.2436 29.4427 96.0463 29.88 95.6516 30.008C95.4703 30.072 95.193 30.104 94.8196 30.104H89.9076V31.72H93.0756C93.321 31.72 93.5023 31.7307 93.6196 31.752C93.7476 31.7627 93.8916 31.8107 94.0516 31.896C94.3396 32.0453 94.4836 32.4613 94.4836 33.144C94.4836 33.8907 94.281 34.328 93.8756 34.456C93.6943 34.52 93.417 34.552 93.0436 34.552H89.9076V36.168Z" fill="#474747"/>
</svg>
